<?xml version="1.0" encoding="UTF-8"?>
<!-- Created with Inkscape (http://www.inkscape.org/) -->
<svg width="180" height="180" version="1.1" viewBox="0 0 180 180" xmlns="http://www.w3.org/2000/svg">
 <style>path { @media (prefers-color-scheme: dark) { fill: white } }</style>
 <path d="m28.847 0.0017c-15.981 0-28.847 12.865-28.847 28.845v122.31c0 15.981 12.865 28.845 28.847 28.845h1.5059l8.1447-8.6541s-22.74-17.055-1.2637-46.11l-27.798-44.847 77.391-80.385h-57.98zm120.8 0-8.1428 8.6541s22.74 17.055 1.2637 46.11l27.794 44.847-77.391 80.385h57.98c15.981 0 28.847-12.865 28.847-28.845v-122.31c0-15.981-12.865-28.845-28.847-28.845h-1.5039zm-33.388 21.104a14.493 14.493 0 0 0-14.494 14.492 14.493 14.493 0 0 0 14.494 14.494 14.493 14.493 0 0 0 14.492-14.494 14.493 14.493 0 0 0-14.492-14.492zm-26.265 41.04-27.856 27.854 27.856 27.854 27.856-27.854zm-26.265 67.765a14.493 14.493 0 0 0-14.492 14.494 14.493 14.493 0 0 0 14.492 14.492 14.493 14.493 0 0 0 14.494-14.492 14.493 14.493 0 0 0-14.494-14.494z" fill="red"/>
</svg>
