<?xml version="1.0" encoding="UTF-8"?>
<svg version="1.1" viewBox="0 0 72 72" xmlns="http://www.w3.org/2000/svg">
 <path d="m36.058 7q8.319 0 12.245 8.8244 0.50536 2.0214 0.62198 4.1984 0 4.5483-4.6649 10.768l-2.3324 2.3324h0.11656q2.8767-1.0885 6.1421-1.0885h0.73861q9.252 0 12.984 7.8525 0.8941 2.5657 0.8941 4.8981 0 7.9692-8.1247 12.012-1.555 0.46649-4.315 0.69973-9.4075 0-13.334-10.651h-0.11656v0.34987q0 13.334 3.1877 17.571v0.23324h-8.0858l-0.23324-0.23324q3.3043-4.9759 3.3043-17.921v-0.11656h-0.11656q-3.8874 10.768-13.412 10.768-7.4249 0-11.39-7.8137-0.97185-2.6434-0.97185-4.8981 0-9.0576 9.563-12.284 2.5657-0.46649 4.5483-0.46649h0.34987q3.3432 0 6.3753 1.0885h0.11656v-0.11656q-3.2654-2.7601-4.3928-5.4424-2.3324-4.2761-2.3324-7.4249v-0.54424q0-7.8137 8.3579-11.857 2.7601-0.73861 4.2761-0.73861z" style="white-space:pre" aria-label="♣"/>
</svg>
