<?xml version="1.0" encoding="UTF-8"?>
<svg version="1.1" viewBox="0 0 72 72" xmlns="http://www.w3.org/2000/svg">
 <path d="m36.097 7q3.6542 6.492 12.051 17.221 9.2131 10.807 9.4464 13.023 1.5161 3.3043 1.5161 6.4142v1.555q0 6.492-6.2976 10.224-2.0603 0.85522-4.5483 0.85522-5.9866 0-9.6796-8.5912h-1.6327v0.4664q0 11.001 3.2265 16.832h-8.3579v-0.2332q3.3043-5.87 3.3043-16.949l-0.11656-0.1166h-1.4772l-1.8271 3.4209q-3.3043 5.1702-8.2413 5.1702-7.2694 0-10.224-8.1247l-0.34989-2.8378v-1.7882q0-7.1139 7.2694-15.005 12.245-15.005 15.705-21.42l0.11655-0.1166z" style="white-space:pre" aria-label="♠"/>
</svg>
